<?xml version="1.0" encoding="utf-8"?>
<!-- Uploaded to: SVG Repo, www.svgrepo.com, Generator: SVG Repo Mixer Tools -->
<svg width="800px" height="800px" viewBox="0 0 1024 1024" class="icon"  version="1.1" xmlns="http://www.w3.org/2000/svg"><path d="M918.658791 363.547158L152.78281 371.877089l-59.194935 68.002527v273.384836h35.183764l29.230485-80.491598 54.033873 80.491598h115.174401l8.458084-158.210435 582.990309-16.648212V363.547158z" fill="#178E3B" /><path d="M345.909054 752.327751H209.8574A24.465531 24.465531 0 0 1 187.966574 738.836758l-17.754985-35.393469-9.797863 31.653737a24.465531 24.465531 0 0 1-23.370408 17.230725H83.114297a24.465531 24.465531 0 0 1-24.465531-24.465532V460.209307a136.820571 136.820571 0 0 1 136.669118-136.657467l745.453088-2.74946a24.465531 24.465531 0 0 1 24.558733 24.465531V556.323894a24.465531 24.465531 0 0 1-24.349029 24.465532l-570.035228 2.644607-0.570863 144.533039a24.465531 24.465531 0 0 1-24.465531 24.360679z m-120.964577-48.931063h96.592248l0.570862-144.463137A24.465531 24.465531 0 0 1 346.410015 534.607823l569.930376-2.644608V369.768393l-720.987556 2.656258A87.854558 87.854558 0 0 0 107.579829 460.209307v243.187381h11.428898l22.438387-72.476224a24.465531 24.465531 0 0 1 45.237932-3.739731z" fill="#203529" /><path d="M160.355475 508.033596a12.232766 12.232766 0 0 1-12.232766-12.232766c0-29.871249 8.924094-53.521262 26.515976-70.297627 28.158661-26.795582 67.990876-25.246098 69.668513-25.164546a12.232766 12.232766 0 0 1-1.165026 24.465531c-0.582513 0-31.455683-0.966971-51.797024 18.570504-12.465771 11.96481-18.791858 29.614943-18.791858 52.426138a12.232766 12.232766 0 0 1-12.197815 12.232766zM165.306832 1024A96.300991 96.300991 0 0 1 69.133994 927.815511c0-7.922172 0-32.038196 39.191451-101.928063 0.337857-0.605813 34.857557-61.606538 47.556333-71.718957A24.465531 24.465531 0 0 1 174.790138 749.135581c13.176436 2.003844 19.048164 11.51045 30.034352 31.106176 7.37461 13.141485 15.622989 29.230485 23.218955 45.319484 22.193732 46.997121 33.459527 81.411968 33.459526 102.277571a96.300991 96.300991 0 0 1-96.196139 96.161188z m4.427096-205.82502a770.000171 770.000171 0 0 0-20.865603 35.44007C126.127031 894.763744 118.065056 919.310827 118.065056 927.815511a47.253426 47.253426 0 0 0 94.518503 0c0-9.157099-6.722196-33.552729-25.630557-74.561619-5.97658-12.978382-11.941509-25.024743-17.219074-35.078912zM636.850822 370.374206H416.16008a24.465531 24.465531 0 0 1-24.465532-24.465531v-73.058736a24.465531 24.465531 0 0 1 24.465532-24.465532h22.391786l-0.337858-41.311797a24.465531 24.465531 0 0 1 24.465532-24.663585h127.663472a24.465531 24.465531 0 0 1 24.465531 24.267477l0.349508 41.719556h21.692771a24.465531 24.465531 0 0 1 24.465531 24.465531v73.058736a24.465531 24.465531 0 0 1-24.465531 24.453881z m-196.225211-48.931062H612.385291v-24.127674h-21.494717a24.465531 24.465531 0 0 1-24.465531-24.267477l-0.349508-41.719556H487.378076l0.337857 41.311797a24.465531 24.465531 0 0 1-24.465531 24.663586h-22.624791z" fill="#203529" /><path d="M788.74682 222.346092a24.465531 24.465531 0 0 1-2.726159-0.151453l-203.506619-22.846147a79.559578 79.559578 0 0 1-111.92398 0L266.99024 222.194639a24.465531 24.465531 0 0 1-27.19169-24.314078V87.750719A24.465531 24.465531 0 0 1 266.023269 63.343439l213.432635 15.378334a79.594528 79.594528 0 0 1 94.215596 0l213.316132-15.378334a24.465531 24.465531 0 0 1 26.22472 24.40728v110.129842a24.465531 24.465531 0 0 1-24.465532 24.465531zM480.877235 149.147552a24.465531 24.465531 0 0 1 20.28309 10.788135 30.616865 30.616865 0 0 0 50.806754 0 24.465531 24.465531 0 0 1 23.0209-10.636681l189.30496 21.261711V114.04534l-197.087329 14.190008a24.465531 24.465531 0 0 1-19.048164-7.048403 30.581914 30.581914 0 0 0-43.210788 0 24.465531 24.465531 0 0 1-19.048164 7.095004L288.717962 114.04534v56.480427l189.409813-21.273362a24.465531 24.465531 0 0 1 2.74946-0.104853z" fill="#203529" /><path d="M823.918934 430.163305H506.123333a12.232766 12.232766 0 0 1 0-24.465532h317.795601a12.232766 12.232766 0 0 1 0 24.465532zM823.918934 495.847431H506.123333a12.232766 12.232766 0 0 1 0-24.465531h317.795601a12.232766 12.232766 0 0 1 0 24.465531z" fill="#2FA65B" /><path d="M311.948567 288.624381h-0.104853c-121.710193-1.048523-187.569073-20.143287-201.456174-58.379418-13.036633-35.987631 26.795582-70.320927 28.508169-71.765558a12.232766 12.232766 0 0 1 15.844344 18.640405c-0.291256 0.244655-28.519819 25.129596-21.331613 44.830173C137.870486 234.194399 164.235009 262.888972 312.053419 264.15885a12.232766 12.232766 0 0 1-0.104852 24.465531zM912.542409 113.952138a12.232766 12.232766 0 0 1-9.19205-20.306391c12.325968-13.980304 16.624911-25.199497 12.815278-33.17992-3.728081-7.747418-21.716072-26.515976-107.951244-33.494478A880.386318 880.386318 0 0 0 709.897908 25.118959a12.232766 12.232766 0 0 1-1.165025-24.465531 888.553145 888.553145 0 0 1 101.217398 1.887341c73.839303 5.953279 115.791864 21.413165 128.245985 47.288377 8.504685 17.661784 2.970815 37.828371-16.438507 59.940551a12.209465 12.209465 0 0 1-9.21535 4.182441z" fill="#203529" /><path d="M156.988552 933.978495m-14.574467 0a14.574466 14.574466 0 1 0 29.148933 0 14.574466 14.574466 0 1 0-29.148933 0Z" fill="#203529" /></svg>